<?xml version="1.0" standalone="no"?>
<!DOCTYPE svg PUBLIC "-//W3C//DTD SVG 1.1//EN" "http://www.w3.org/Graphics/SVG/1.1/DTD/svg11.dtd">
<svg width="324" height="324" version="1.1" xmlns="http://www.w3.org/2000/svg">
  <title>20 cells diameter theta maze</title>
  <desc>20 cells diameter theta maze generated by The Maze Generator Website (https://www.mazegenerator.net/).</desc>
  <g fill="none" stroke="#000000" stroke-width="2" stroke-linecap="square">
    <path d="M 140.37258300203047,185.62741699796953 A 32,32 0 1,1 163,195" />
    <path d="M 144.63119524647567,118.65378243945824 A 48,48 0 0,1 181.3688047535243,118.65378243945824" />
    <path d="M 207.34621756054176,144.6311952464757 A 48,48 0 0,1 211,163" />
    <path d="M 207.34621756054176,181.3688047535243 A 48,48 0 0,1 196.94112549695427,196.94112549695427" />
    <path d="M 163,211 A 48,48 0 0,1 129.05887450304573,196.94112549695427" />
    <path d="M 118.65378243945824,181.36880475352433 A 48,48 0 0,1 115,163" />
    <path d="M 227,163 A 64,64 0 0,1 222.12829008072237,187.49173967136574" />
    <path d="M 187.49173967136576,222.12829008072237 A 64,64 0 0,1 138.50826032863427,222.12829008072237" />
    <path d="M 117.74516600406096,208.25483399593907 A 64,64 0 0,1 103.87170991927766,187.49173967136579" />
    <path d="M 103.87170991927766,138.50826032863424 A 64,64 0 0,1 117.74516600406095,117.74516600406096" />
    <path d="M 163,83 A 80,80 0 0,1 219.5685424949238,106.4314575050762" />
    <path d="M 241.46282243225843,147.39277423870973 A 80,80 0 0,1 241.46282243225843,178.60722576129027" />
    <path d="M 236.91036260090294,193.61467458920717 A 80,80 0 0,1 193.6146745892072,236.91036260090294" />
    <path d="M 178.60722576129029,241.46282243225843 A 80,80 0 0,1 163,243" />
    <path d="M 132.38532541079283,236.91036260090294 A 80,80 0 0,1 147.39277423870971,84.537177567741566" />
    <path d="M 95.117749006091429,95.117749006091458 A 96,96 0 0,1 163,67" />
    <path d="M 251.69243512108352,126.26239049295137 A 96,96 0 0,1 251.69243512108352,199.7376095070486" />
    <path d="M 230.88225099390857,230.88225099390854 A 96,96 0 0,1 216.33474236988181,242.82108278104437" />
    <path d="M 199.73760950704863,251.69243512108352 A 96,96 0 0,1 181.72867091354834,257.15538691871012" />
    <path d="M 163,259 A 96,96 0 0,1 95.117749006091444,230.88225099390857" />
    <path d="M 74.3075648789165,199.73760950704866 A 96,96 0 0,1 68.844613081289879,181.72867091354834" />
    <path d="M 68.844613081289879,144.27132908645169 A 96,96 0 0,1 74.30756487891648,126.26239049295137" />
    <path d="M 120.13945557510988,59.525492358735917 A 112,112 0 0,1 163,51" />
    <path d="M 184.85011606580636,53.152048594838192 A 112,112 0 0,1 266.4745076412641,120.13945557510994" />
    <path d="M 266.47450764126415,205.86054442489004 A 112,112 0 0,1 242.19595949289334,242.19595949289331" />
    <path d="M 225.22386609819543,256.12459657788509 A 112,112 0 0,1 120.13945557510996,266.47450764126415" />
    <path d="M 83.804040507106691,242.19595949289334 A 112,112 0 0,1 69.875403422114928,225.22386609819546" />
    <path d="M 59.5254923587359,205.86054442489012 A 112,112 0 0,1 51,163.00000000000003" />
    <path d="M 59.525492358735889,120.13945557510992 A 112,112 0 0,1 69.8754034221149,100.7761339018046" />
    <path d="M 163,35 A 128,128 0 0,1 187.97156121806441,37.459484108386505" />
    <path d="M 234.11298982650908,56.57188962527421 A 128,128 0 0,1 269.4281103747258,91.8870101734909" />
    <path d="M 281.25658016144473,114.0165206572685 A 128,128 0 0,1 291,163" />
    <path d="M 288.5405158916135,187.97156121806441 A 128,128 0 0,1 281.25658016144473,211.98347934273147" />
    <path d="M 269.4281103747258,234.11298982650905 A 128,128 0 0,1 253.50966799187808,253.50966799187808" />
    <path d="M 211.9834793427315,281.25658016144473 A 128,128 0 0,1 163.00000000000003,291" />
    <path d="M 138.02843878193556,288.5405158916135 A 128,128 0 0,1 44.743419838555326,211.98347934273156" />
    <path d="M 37.459484108386505,138.02843878193556 A 128,128 0 0,1 44.743419838555312,114.01652065726847" />
    <path d="M 72.4903320081219,72.490332008121939 A 128,128 0 0,1 114.01652065726843,44.743419838555326" />
    <path d="M 95.1188698970563,36.0033379338369 A 144,144 0 0,1 177.11446820745672,19.693399359203653" />
    <path d="M 191.09300637032249,21.766919621934818 A 144,144 0 0,1 264.82337649086287,61.176623509137158" />
    <path d="M 274.31350528423411,71.647367080435046 A 144,144 0 0,1 300.79940834543811,121.19900647535744" />
    <path d="M 307,163 A 144,144 0 0,1 306.30660064079632,177.11446820745672" />
    <path d="M 300.79940834543811,204.80099352464256 A 144,144 0 0,1 230.8811301029437,289.99666206616314" />
    <path d="M 218.10641426057293,296.03865268162531 A 144,144 0 0,1 204.80099352464259,300.79940834543811" />
    <path d="M 177.11446820745675,306.30660064079632 A 144,144 0 0,1 134.90699362967752,304.23308037806521" />
    <path d="M 107.8935857394271,296.03865268162531 A 144,144 0 0,1 95.118869897056342,289.99666206616314" />
    <path d="M 82.997886445177329,282.73162417156652 A 144,144 0 0,1 43.268375828433477,243.0021135548227" />
    <path d="M 36.003337933836889,230.8811301029437 A 144,144 0 0,1 25.200591654561919,204.80099352464259" />
    <path d="M 19.693399359203653,177.1144682074567 A 144,144 0 0,1 19.693399359203653,148.88553179254336" />
    <path d="M 25.200591654561919,121.19900647535746 A 144,144 0 0,1 36.003337933836875,95.118869897056356" />
    <path d="M 51.686494715765889,71.647367080435032 A 144,144 0 0,1 61.17662350913713,61.176623509137173" />
    <path d="M 178.68274245272968,3.7704437324484843 A 160,160 0 1,1 163,3" />
  </g>
  <g fill="none" stroke="#000000" stroke-width="2" stroke-linecap="butt">
    <line x1="163" y1="19" x2="163" y2="35" />
    <line x1="163" y1="51" x2="163" y2="99" />
    <line x1="194.21445152258053" y1="6.0743551354831311" x2="191.09300637032246" y2="21.766919621934818" />
    <line x1="187.97156121806441" y1="37.459484108386505" x2="181.72867091354831" y2="68.844613081289879" />
    <line x1="218.10641426057293" y1="29.96134731837472" x2="211.9834793427315" y2="44.7434198385553" />
    <line x1="199.7376095070486" y1="74.30756487891648" x2="193.6146745892072" y2="89.089637399097057" />
    <line x1="187.49173967136574" y1="103.87170991927765" x2="181.3688047535243" y2="118.65378243945824" />
    <line x1="234.11298982650908" y1="56.57188962527421" x2="216.33474236988181" y2="83.178917218955661" />
    <line x1="230.88225099390854" y1="95.117749006091429" x2="185.62741699796953" y2="140.37258300203047" />
    <line x1="282.73162417156652" y1="82.997886445177272" x2="269.4281103747258" y2="91.8870101734909" />
    <line x1="256.12459657788509" y1="100.77613390180454" x2="229.51756898420362" y2="118.55438135843181" />
    <line x1="266.4745076412641" y1="120.13945557510994" x2="207.34621756054176" y2="144.6311952464757" />
    <line x1="319.92564486451687" y1="131.78554847741947" x2="272.84795140516178" y2="141.14988393419364" />
    <line x1="322.22955626755152" y1="147.31725754727029" x2="306.30660064079632" y2="148.88553179254325" />
    <line x1="307" y1="163" x2="291" y2="163" />
    <line x1="275" y1="163" x2="259" y2="163" />
    <line x1="243" y1="163" x2="227" y2="163" />
    <line x1="319.92564486451687" y1="194.2144515225805" x2="272.84795140516178" y2="184.85011606580636" />
    <line x1="281.25658016144473" y1="211.98347934273147" x2="266.4745076412641" y2="205.86054442489007" />
    <line x1="251.69243512108352" y1="199.7376095070486" x2="236.91036260090294" y2="193.61467458920717" />
    <line x1="222.12829008072237" y1="187.49173967136574" x2="207.34621756054176" y2="181.3688047535243" />
    <line x1="256.12459657788509" y1="225.2238660981954" x2="242.82108278104437" y2="216.33474236988178" />
    <line x1="253.50966799187808" y1="253.50966799187808" x2="242.19595949289334" y2="242.19595949289331" />
    <line x1="230.88225099390857" y1="230.88225099390854" x2="208.25483399593904" y2="208.25483399593904" />
    <line x1="196.94112549695427" y1="196.94112549695427" x2="185.62741699796953" y2="185.62741699796953" />
    <line x1="243.0021135548227" y1="282.73162417156652" x2="216.33474236988181" y2="242.82108278104437" />
    <line x1="224.2293491784144" y1="310.82072520180589" x2="218.10641426057293" y2="296.03865268162531" />
    <line x1="199.73760950704863" y1="251.69243512108352" x2="193.6146745892072" y2="236.91036260090294" />
    <line x1="187.49173967136576" y1="222.12829008072237" x2="181.36880475352433" y2="207.34621756054176" />
    <line x1="194.21445152258059" y1="319.92564486451687" x2="191.09300637032251" y2="304.23308037806521" />
    <line x1="163.00000000000003" y1="307" x2="163" y2="275" />
    <line x1="163" y1="259" x2="163" y2="227" />
    <line x1="163" y1="211" x2="163" y2="195" />
    <line x1="144.27132908645169" y1="257.15538691871012" x2="147.39277423870973" y2="241.46282243225843" />
    <line x1="116.55445163928607" y1="316.1104537171534" x2="121.19900647535746" y2="300.79940834543811" />
    <line x1="107.8935857394271" y1="296.03865268162531" x2="114.01652065726853" y2="281.25658016144473" />
    <line x1="132.38532541079283" y1="236.91036260090294" x2="144.6311952464757" y2="207.34621756054176" />
    <line x1="74.10876271686368" y1="296.0351379684073" x2="82.997886445177315" y2="282.73162417156652" />
    <line x1="91.88701017349095" y1="269.4281103747258" x2="100.77613390180459" y2="256.12459657788509" />
    <line x1="69.875403422114928" y1="225.22386609819546" x2="96.482431015796379" y2="207.44561864156816" />
    <line x1="21.89259770426321" y1="238.42347789215967" x2="36.003337933836889" y2="230.8811301029437" />
    <line x1="29.961347318374749" y1="218.10641426057302" x2="59.5254923587359" y2="205.86054442489012" />
    <line x1="103.87170991927766" y1="187.49173967136579" x2="118.65378243945824" y2="181.36880475352433" />
    <line x1="6.0743551354831595" y1="194.21445152258059" x2="37.459484108386519" y2="187.97156121806447" />
    <line x1="68.844613081289893" y1="181.72867091354834" x2="84.53717756774158" y2="178.60722576129029" />
    <line x1="19" y1="163.00000000000003" x2="67" y2="163.00000000000003" />
    <line x1="99" y1="163" x2="131" y2="163" />
    <line x1="6.0743551354831311" y1="131.78554847741947" x2="21.766919621934818" y2="134.90699362967752" />
    <line x1="37.459484108386505" y1="138.02843878193556" x2="84.537177567741566" y2="147.39277423870973" />
    <line x1="29.96134731837472" y1="107.89358573942704" x2="44.743419838555312" y2="114.01652065726847" />
    <line x1="103.87170991927766" y1="138.50826032863424" x2="118.65378243945824" y2="144.63119524647567" />
    <line x1="29.96486203159273" y1="74.108762716863708" x2="96.482431015796365" y2="118.55438135843185" />
    <line x1="61.17662350913713" y1="61.176623509137187" x2="95.117749006091429" y2="95.117749006091458" />
    <line x1="117.74516600406095" y1="117.74516600406096" x2="140.37258300203047" y2="140.3725830020305" />
    <line x1="61.497074533816658" y1="39.318327461962127" x2="71.647367080434989" y2="51.686494715765917" />
    <line x1="74.108762716863652" y1="29.964862031592759" x2="82.997886445177286" y2="43.268375828433491" />
    <line x1="100.77613390180456" y1="69.875403422114928" x2="109.66525763011819" y2="83.178917218955661" />
    <line x1="107.89358573942698" y1="29.961347318374749" x2="114.01652065726843" y2="44.743419838555326" />
    <line x1="132.38532541079277" y1="89.089637399097086" x2="144.63119524647567" y2="118.65378243945824" />
    <line x1="138.02843878193554" y1="37.459484108386519" x2="141.14988393419358" y2="53.152048594838206" />
  </g>
</svg>
